<svg width="1920" height="1080" xmlns="http://www.w3.org/2000/svg">
  <defs>
    <linearGradient id="gradient" x1="0%" y1="0%" x2="100%" y2="100%">
      <stop offset="0%" stop-color="#000022" />
      <stop offset="100%" stop-color="#110033" />
    </linearGradient>
    <pattern id="grid" width="50" height="50" patternUnits="userSpaceOnUse">
      <path d="M 50 0 L 0 0 0 50" fill="none" stroke="#ffffff" stroke-width="0.5" opacity="0.1"/>
    </pattern>
  </defs>
  <rect width="100%" height="100%" fill="url(#gradient)" />
  <rect width="100%" height="100%" fill="url(#grid)" />
  
  <!-- Random stars -->
  <g fill="#ffffff">
    <circle cx="150" cy="100" r="1" opacity="0.8" />
    <circle cx="550" cy="200" r="1.5" opacity="0.7" />
    <circle cx="950" cy="300" r="1" opacity="0.9" />
    <circle cx="1350" cy="150" r="1.2" opacity="0.8" />
    <circle cx="350" cy="450" r="1" opacity="0.7" />
    <circle cx="750" cy="550" r="1.3" opacity="0.9" />
    <circle cx="1150" cy="650" r="1" opacity="0.8" />
    <circle cx="1550" cy="400" r="1.4" opacity="0.7" />
    <circle cx="250" cy="750" r="1" opacity="0.9" />
    <circle cx="650" cy="850" r="1.2" opacity="0.8" />
    <circle cx="1050" cy="950" r="1" opacity="0.7" />
    <circle cx="1450" cy="700" r="1.5" opacity="0.9" />
    <circle cx="450" cy="100" r="1" opacity="0.8" />
    <circle cx="850" cy="200" r="1.3" opacity="0.7" />
    <circle cx="1250" cy="300" r="1" opacity="0.9" />
    <circle cx="1650" cy="150" r="1.2" opacity="0.8" />
    <circle cx="350" cy="450" r="1.4" opacity="0.7" />
    <circle cx="750" cy="550" r="1" opacity="0.9" />
    <circle cx="1150" cy="650" r="1.5" opacity="0.8" />
    <circle cx="1550" cy="400" r="1" opacity="0.7" />
    <circle cx="250" cy="750" r="1.3" opacity="0.9" />
    <circle cx="650" cy="850" r="1" opacity="0.8" />
    <circle cx="1050" cy="950" r="1.2" opacity="0.7" />
    <circle cx="1450" cy="700" r="1" opacity="0.9" />
  </g>
</svg>
